# xmcd
#
# Track frame offsets:
#	150
#	13358
#	22990
#	36507
#	48072
#	60988
#	71299
#	82300
#	92212
#	105279
#	113180
#	125982
#	138587
#	147623
#	160264
#	171564
#
# Disc length: 2421 seconds
# Revision: 2
# Processed by: cddbd v1.5.2PL0 Copyright (c) Steve Scherf et al.
# Submitted via: dBpowerAMP V12.0
#
DISCID=e9097310
DTITLE=Various Artist - The Poet Of The Blues disc 06 Magic Sam, Otis Rush, Harold Burrage And More
DYEAR=2011
DGENRE=Blues
TTITLE0=Magic Sam - All Your Love
TTITLE1=Magic Sam - Love Me With A Feeling
TTITLE2=Otis Rush - Love That Woman
TTITLE3=Otis Rush - Jump Sister Bessie
TTITLE4=Harold Burrage - Satisfied
TTITLE5=Betty Everett - My Love
TTITLE6=Duke Jenkins - Shake It
TTITLE7=Magic Sam - Look Whacha Doing
TTITLE8=Magic Sam - Everything Gonna Be Alright
TTITLE9=Sunnyland Slim - Eli Toscana Blues
TTITLE10=Otis Rush And The Willie Dixon Band - Three Times A Fool
TTITLE11=Otis Rush And The Willie Dixon Band - She's A Good'un
TTITLE12=Betty Everett - Aint't Gonna Cry
TTITLE13=Magic Sam - All Night Long
TTITLE14=Harold Burrage - I Cry For You
TTITLE15=Magic Sam - All My Life
EXTD=
EXTT0=
EXTT1=
EXTT2=
EXTT3=
EXTT4=
EXTT5=
EXTT6=
EXTT7=
EXTT8=
EXTT9=
EXTT10=
EXTT11=
EXTT12=
EXTT13=
EXTT14=
EXTT15=
PLAYORDER=
